<svg width="190" height="190" viewBox="0 0 190 190" fill="none" xmlns="http://www.w3.org/2000/svg">
<path d="M103.65 182.491L92.8844 172.204C81.7009 161.514 63.9434 162.342 53.7821 174.029L48.0136 180.663C42.857 186.596 35.4127 190 27.5923 190H27.2161C3.32526 190 -8.92604 161.135 7.5585 143.696L15.0522 135.769C25.4376 124.785 24.9892 107.376 14.049 96.9505L10.4123 93.4857C-7.44402 76.4641 4.49568 46.1771 29.0705 46.1771C36.0207 46.1771 42.7126 48.8639 47.759 53.6894L57.0273 62.5509C68.2108 73.2407 85.9607 72.4204 96.1258 60.738L100.686 55.5024C105.843 49.573 113.279 46.1771 121.1 46.1771H121.392C145.294 46.1771 157.546 75.0689 141.031 92.5006L134.894 98.9819C124.485 109.963 124.93 127.391 135.878 137.824L140.985 142.688C158.845 159.709 146.902 190 122.331 190C115.381 190 108.696 187.313 103.65 182.491Z" fill="white"/>
<path d="M190 26.8297C190 41.6474 178.091 53.6594 163.4 53.6594C148.709 53.6594 136.8 41.6474 136.8 26.8297C136.8 12.012 148.709 -0.000114441 163.4 -0.000114441C178.091 -0.000114441 190 12.012 190 26.8297Z" fill="white"/>
</svg>
