<svg width="24" height="24" viewBox="0 0 24 24" fill="none" xmlns="http://www.w3.org/2000/svg">
<path d="M13.0926 23.0516L11.7328 21.7521C10.3201 20.4018 8.07706 20.5064 6.79353 21.9826L6.06488 22.8206C5.41352 23.5701 4.47319 24 3.48534 24H3.43782C0.420033 24 -1.1275 20.3539 0.954758 18.151L1.90133 17.1498C3.21318 15.7623 3.15654 13.5633 1.7746 12.2464L1.31524 11.8087C-0.940297 9.65862 0.567875 5.8329 3.67206 5.8329C4.54999 5.8329 5.39527 6.17228 6.03272 6.78182L7.20345 7.90117C8.6161 9.25145 10.8582 9.14784 12.1422 7.67217L12.7182 7.01082C13.3696 6.26185 14.3089 5.8329 15.2968 5.8329H15.3338C18.353 5.8329 19.9005 9.48239 17.8144 11.6843L17.0392 12.503C15.7245 13.8901 15.7806 16.0915 17.1635 17.4093L17.8087 18.0237C20.0647 20.1738 18.556 24 15.4523 24C14.5744 24 13.7301 23.6606 13.0926 23.0516Z" fill="#6366F1"/>
<path d="M24.0001 3.38905C24.0001 5.26076 22.4958 6.77808 20.6401 6.77808C18.7844 6.77808 17.28 5.26076 17.28 3.38905C17.28 1.51734 18.7844 2.92659e-05 20.6401 2.92659e-05C22.4958 2.92659e-05 24.0001 1.51734 24.0001 3.38905Z" fill="#6366F1"/>
</svg>
